<svg xmlns="http://www.w3.org/2000/svg" width="25" height="40" viewBox="0 0 25 40">
  <metadata><?xpacket begin="﻿" id="W5M0MpCehiHzreSzNTczkc9d"?>
<x:xmpmeta xmlns:x="adobe:ns:meta/" x:xmptk="Adobe XMP Core 5.6-c138 79.159824, 2016/09/14-01:09:01        ">
   <rdf:RDF xmlns:rdf="http://www.w3.org/1999/02/22-rdf-syntax-ns#">
      <rdf:Description rdf:about=""/>
   </rdf:RDF>
</x:xmpmeta>
                                                                                                    
                                                                                                    
                                                                                                    
                                                                                                    
                                                                                                    
                                                                                                    
                                                                                                    
                                                                                                    
                                                                                                    
                                                                                                    
                                                                                                    
                                                                                                    
                                                                                                    
                                                                                                    
                                                                                                    
                                                                                                    
                                                                                                    
                                                                                                    
                                                                                                    
                                                                                                    
                           
<?xpacket end="w"?></metadata>
<defs>
    <style>
      .cls-1 {
        fill: #fff;
        fill-rule: evenodd;
      }
    </style>
  </defs>
  <path class="cls-1" d="M968.837,738.66a12.5,12.5,0,0,0-21.335,8.828v15.024a12.5,12.5,0,0,0,25,0V747.488A12.4,12.4,0,0,0,968.837,738.66Zm1.542,23.851a10.379,10.379,0,0,1-20.758,0V747.488a10.379,10.379,0,0,1,20.758,0v15.023ZM960,741.563a1.059,1.059,0,0,0-1.059,1.058v2.486a1.059,1.059,0,0,0,2.118,0v-2.486A1.059,1.059,0,0,0,960,741.563Zm0,5.321a1.059,1.059,0,0,0-1.059,1.058v0.313a1.059,1.059,0,0,0,2.118,0v-0.313A1.059,1.059,0,0,0,960,746.884Z" transform="translate(-947.5 -735)"/>
</svg>